<?xml version="1.0" encoding="UTF-8"?>
<svg version="1.1" xmlns="http://www.w3.org/2000/svg" width="1024" height="1024">
<path d="M0 0 C337.92 0 675.84 0 1024 0 C1024 337.92 1024 675.84 1024 1024 C686.08 1024 348.16 1024 0 1024 C0 686.08 0 348.16 0 0 Z " fill="#FDFEFD" transform="translate(0,0)"/>
<path d="M0 0 C0.99 0 1.98 0 3 0 C4.38123963 1.96722008 5.71488126 3.96868328 7 6 C7.66 6.33 8.32 6.66 9 7 C11.8862903 12.7190718 11.32979074 18.61575265 11.3125 24.875 C11.32861328 26.03386719 11.34472656 27.19273437 11.36132812 28.38671875 C11.3650012 34.81460501 10.93569631 39.29491531 8 45 C7.38824958 47.13231526 6.82193784 49.27845391 6.3125 51.4375 C6.06113281 52.48808594 5.80976562 53.53867187 5.55078125 54.62109375 C5.27814453 55.79865234 5.27814453 55.79865234 5 57 C4.34 57 3.68 57 3 57 C2.896875 57.66 2.79375 58.32 2.6875 59 C1.80786436 62.83841009 0.43030104 66.33096691 -1 70 C-1.66 70 -2.32 70 -3 70 C-3 71.32 -3 72.64 -3 74 C-3.66 74 -4.32 74 -5 74 C-5 74.66 -5 75.32 -5 76 C-5.66 76.33 -6.32 76.66 -7 77 C-8.12706706 79.11015954 -8.12706706 79.11015954 -9.125 81.5625 C-9.65480469 82.80193359 -9.65480469 82.80193359 -10.1953125 84.06640625 C-10.46085937 84.70449219 -10.72640625 85.34257813 -11 86 C-11.66 86 -12.32 86 -13 86 C-13 86.99 -13 87.98 -13 89 C-13.66 89 -14.32 89 -15 89 C-15 89.99 -15 90.98 -15 92 C-16.17784931 93.14419647 -17.36004263 94.28434532 -18.56640625 95.3984375 C-20.87571144 97.97831523 -22.26501629 101.02036859 -23.7890625 104.109375 C-25 106 -25 106 -28 107 C-28.33 107.99 -28.66 108.98 -29 110 C-29.66 110 -30.32 110 -31 110 C-31 110.99 -31 111.98 -31 113 C-32.32 113.33 -33.64 113.66 -35 114 C-35 114.66 -35 115.32 -35 116 C-35.66 116 -36.32 116 -37 116 C-37.17982422 116.87978516 -37.17982422 116.87978516 -37.36328125 117.77734375 C-38.4071448 121.42126008 -40.45761488 124.21776722 -43 127 C-45 128 -47 129 -49 130 C-50.94805994 132.03771961 -52.72365578 134.15456972 -54.484375 136.35546875 C-54.98453125 136.89816406 -55.4846875 137.44085937 -56 138 C-56.66 138 -57.32 138 -58 138 C-58 138.66 -58 139.32 -58 140 C-59.98 140.66 -61.96 141.32 -64 142 C-64 143.32 -64 144.64 -64 146 C-64.99 146 -65.98 146 -67 146 C-67 146.66 -67 147.32 -67 148 C-67.66 148 -68.32 148 -69 148 C-69 148.66 -69 149.32 -69 150 C-70.65 150.66 -72.3 151.32 -74 152 C-74 152.66 -74 153.32 -74 154 C-75.35546875 155.3671875 -75.35546875 155.3671875 -77.1875 156.875 C-77.82300781 157.40351562 -78.45851563 157.93203125 -79.11328125 158.4765625 C-80.68894916 159.74884094 -82.28014745 161.00185453 -83.875 162.25 C-86.08249688 163.82654503 -86.08249688 163.82654503 -87 166 C-90.34510352 167.62734766 -92.18835834 168 -96 168 C-96.3403125 168.928125 -96.3403125 168.928125 -96.6875 169.875 C-98.37929835 172.61410209 -99.99244161 173.05024472 -103 174 C-103 174.66 -103 175.32 -103 176 C-103.61875 176.103125 -104.2375 176.20625 -104.875 176.3125 C-107.36526484 176.87525373 -107.36526484 176.87525373 -109 180 C-110.33333333 180.33333333 -111.66666667 180.66666667 -113 181 C-113.66 181.99 -114.32 182.98 -115 184 C-117.34765625 185.09765625 -117.34765625 185.09765625 -120.0625 186.0625 C-123.7867184 187.14705065 -123.7867184 187.14705065 -126 190 C-128.62581138 191.57548683 -129.87099787 192 -133 192 C-133 192.66 -133 193.32 -133 194 C-134.03447266 194.56267578 -134.03447266 194.56267578 -135.08984375 195.13671875 C-136.02957031 195.64847656 -136.96929688 196.16023437 -137.9375 196.6875 C-138.948125 197.23664063 -139.95875 197.78578125 -141 198.3515625 C-142.78009375 199.32968693 -144.55376423 200.31991109 -146.3125 201.3359375 C-151.22962229 204.17412941 -156.22798805 206.42643774 -161.49609375 208.5390625 C-164.15194832 209.64640878 -166.74577264 210.8002863 -169.34765625 212.0234375 C-176.99109692 215.59560746 -183.88853121 218.6523272 -192.35546875 219.6484375 C-194.98502672 219.99800946 -197.29264957 220.62091999 -199.8125 221.4375 C-205.30321889 223.21128743 -210.90941979 224.16868655 -216.58203125 225.15625 C-219.9560737 225.78014477 -219.9560737 225.78014477 -222.26171875 227.53125 C-229.93928732 231.64931816 -240.89731556 230.15711379 -249.36035156 230.13037109 C-251.36531192 230.12502583 -253.37004651 230.13034292 -255.375 230.13671875 C-278.17317293 230.11423534 -278.17317293 230.11423534 -285.95703125 226.6953125 C-289.41116335 225.51971878 -292.95987333 225.42550821 -296.58203125 225.2109375 C-299 225 -299 225 -302 224 C-302 223.34 -302 222.68 -302 222 C-302.67933594 221.87109375 -303.35867188 221.7421875 -304.05859375 221.609375 C-313.50185507 219.65300214 -322.36591391 217.05173866 -331.19140625 213.171875 C-335.36126333 211.43201808 -339.64483369 210.18514481 -344 209 C-344 208.34 -344 207.68 -344 207 C-344.86238281 207.06703125 -345.72476563 207.1340625 -346.61328125 207.203125 C-350.64337692 206.96141223 -352.72846051 205.79534509 -356.1875 203.75 C-360.32252234 201.40258686 -364.2355564 199.42961568 -368.75 197.9375 C-375.001116 195.81120799 -380.50938489 192.64156149 -385.0625 187.8125 C-387.03755751 185.71226606 -387.03755751 185.71226606 -390.5625 184.8125 C-397.39667567 182.50452323 -403.15931228 177.04438045 -408.015625 171.83984375 C-409.90181693 169.85854318 -409.90181693 169.85854318 -412.48046875 169.06640625 C-415.79265137 167.6645057 -417.12973076 165.77470096 -419.3125 162.9375 C-422.81149453 158.48051699 -426.42883195 154.23134649 -430.2734375 150.0703125 C-432 148 -432 148 -433.56640625 145.375 C-435.28791573 142.523017 -437.37639721 141.01815599 -440 139 C-442.1519437 135.77208445 -442.20086443 134.71599191 -442 131 C-442.99 130.67 -443.98 130.34 -445 130 C-446.24609375 128.109375 -446.24609375 128.109375 -447.4375 125.75 C-448.88739286 122.9812287 -450.17392355 120.79129174 -452.1875 118.375 C-454 116 -454 116 -455 112.375 C-455.6264754 108.96645683 -455.6264754 108.96645683 -457.890625 107.69140625 C-462.42170429 104.05815193 -463.61195048 97.43513368 -465 92 C-465.35686077 87.9511722 -465.33363648 84.04812268 -465 80 C-463.02 79.505 -463.02 79.505 -461 79 C-457.82358431 82.45262575 -457.48290831 85.41237107 -457 90 C-456.68033861 91.66934283 -456.35268934 93.3373217 -456 95 C-455.34 95 -454.68 95 -454 95 C-453.51801537 96.24891614 -453.03954323 97.49918808 -452.5625 98.75 C-452.16224609 99.79414062 -452.16224609 99.79414062 -451.75390625 100.859375 C-451 103 -451 103 -450.58984375 105.203125 C-450.39519531 105.79609375 -450.20054687 106.3890625 -450 107 C-449.01 107.33 -448.02 107.66 -447 108 C-445.59436246 110.35841277 -444.34129609 112.67233021 -443.125 115.125 C-439.89395818 121.40749921 -436.81439522 127.26166951 -431.6875 132.25 C-430 134 -430 134 -430 137 C-429.401875 137.061875 -428.80375 137.12375 -428.1875 137.1875 C-425.07733153 138.34270543 -424.39582292 140.06877187 -423 143 C-423 143.99 -423 144.98 -423 146 C-422.01 146.33 -421.02 146.66 -420 147 C-419.773125 147.804375 -419.54625 148.60875 -419.3125 149.4375 C-418.879375 150.283125 -418.44625 151.12875 -418 152 C-415.99022594 152.45381995 -413.97837484 152.90242629 -411.953125 153.28125 C-409.03889372 154.35368711 -408.25692635 156.55682888 -406.99609375 159.2578125 C-405.37022673 162.10148581 -402.75675252 163.35767935 -400 165 C-399.525625 165.495 -399.05125 165.99 -398.5625 166.5 C-395.46555719 169.4730651 -391.51830157 171.42010986 -387.53515625 172.94140625 C-384.98739018 174.00526542 -383.04270352 175.25988076 -380.8125 176.875 C-376.81167021 179.6243223 -372.86297305 181.32349926 -368.33203125 183.0078125 C-366.11400537 183.9514952 -364.46478837 184.9755982 -362.5625 186.4375 C-355.81086432 191.57633278 -347.97110594 194.1342688 -339.83984375 196.1875 C-333.96868004 197.86728274 -327.82833538 200.07830872 -322.7578125 203.5234375 C-318.77381717 205.65651149 -314.66489692 206.29762052 -310.25 207.125 C-308.52541873 207.45772481 -306.80142159 207.79349674 -305.078125 208.1328125 C-304.31918945 208.27605957 -303.56025391 208.41930664 -302.77832031 208.56689453 C-301 209 -301 209 -300 210 C-270.86432428 216.14527429 -236.13757092 220.17048607 -207.90112305 208.66674805 C-204.52195894 207.48163219 -201.04658054 207.17044192 -197.5 206.8125 C-196.77296875 206.73064453 -196.0459375 206.64878906 -195.296875 206.56445312 C-193.5322555 206.36709437 -191.76624923 206.18219804 -190 206 C-190 205.34 -190 204.68 -190 204 C-189.34 204 -188.68 204 -188 204 C-188 203.34 -188 202.68 -188 202 C-184.12315913 200.80712589 -181.08378077 200 -177 200 C-177 199.34 -177 198.68 -177 198 C-167.58997722 194.74031891 -167.58997722 194.74031891 -163 194 C-162.67 193.01 -162.34 192.02 -162 191 C-157.74946279 188.45319052 -152.92032635 186.63488082 -148 186 C-148 185.34 -148 184.68 -148 184 C-145.69 183.67 -143.38 183.34 -141 183 C-141 182.34 -141 181.68 -141 181 C-135.375 178 -135.375 178 -132 178 C-132 177.34 -132 176.68 -132 176 C-130.42578125 174.88671875 -130.42578125 174.88671875 -128.3125 173.6875 C-125.52909289 172.03117675 -123.63950821 170.63950821 -121.3125 168.3125 C-118.93964541 165.93964541 -117.1680418 164.99567028 -114 164 C-114 163.34 -114 162.68 -114 162 C-113.01 161.443125 -112.02 160.88625 -111 160.3125 C-102.98062784 155.73481705 -102.98062784 155.73481705 -95.625 150.1875 C-93 148 -93 148 -91 148 C-91 147.34 -91 146.68 -91 146 C-89.56640625 144.5546875 -89.56640625 144.5546875 -87.5625 142.875 C-84.48119742 140.26648988 -81.47362048 137.60555933 -78.5 134.875 C-75.74512992 132.40413714 -73.08027829 130.34396319 -69.875 128.5 C-66.0560041 126.25086803 -63.59858384 123.46405726 -60.8046875 120.05859375 C-58.32612571 117.23131656 -55.51405248 114.91006968 -52.6015625 112.54296875 C-50.73765368 110.9859601 -50.73765368 110.9859601 -50 108 C-48.40625 106.5703125 -48.40625 106.5703125 -46.5 105.125 C-43.29145651 102.49451394 -42.63386874 101.12014681 -42 97 C-39.8125 94.625 -39.8125 94.625 -37 92 C-32.8627016 87.57353559 -29.49188775 82.86731388 -26.296875 77.72265625 C-25.65492188 76.86994141 -25.65492188 76.86994141 -25 76 C-24.34 76 -23.68 76 -23 76 C-23 75.34 -23 74.68 -23 74 C-22.34 74 -21.68 74 -21 74 C-20.71125 73.113125 -20.4225 72.22625 -20.125 71.3125 C-19.16851252 68.49617576 -18.13201054 65.74916844 -17 63 C-16.34 63 -15.68 63 -15 63 C-15 62.34 -15 61.68 -15 61 C-14.34 61 -13.68 61 -13 61 C-13 60.01 -13 59.02 -13 58 C-12.34 58 -11.68 58 -11 58 C-10.88785156 56.96552734 -10.88785156 56.96552734 -10.7734375 55.91015625 C-9.86462322 49.41480714 -8.21627636 45.32524188 -4.328125 40.078125 C-2.38551423 37.03851051 -2.22237833 34.55805326 -2 31 C-1.67 30.67 -1.34 30.34 -1 30 C0.46560542 20.06645215 0.09476088 10.01549596 0 0 Z " fill="#0E0E0E" transform="translate(732,483)"/>
<path d="M0 0 C0.99 0 1.98 0 3 0 C4.38123963 1.96722008 5.71488126 3.96868328 7 6 C7.66 6.33 8.32 6.66 9 7 C11.8862903 12.7190718 11.32979074 18.61575265 11.3125 24.875 C11.32861328 26.03386719 11.34472656 27.19273437 11.36132812 28.38671875 C11.3650012 34.81460501 10.93569631 39.29491531 8 45 C7.38824958 47.13231526 6.82193784 49.27845391 6.3125 51.4375 C5.93544922 53.01337891 5.93544922 53.01337891 5.55078125 54.62109375 C5.36902344 55.40613281 5.18726563 56.19117188 5 57 C4.34 57 3.68 57 3 57 C2.8453125 57.99 2.8453125 57.99 2.6875 59 C1.80786436 62.83841009 0.43030104 66.33096691 -1 70 C-1.66 70 -2.32 70 -3 70 C-3 71.32 -3 72.64 -3 74 C-3.66 74 -4.32 74 -5 74 C-5 74.66 -5 75.32 -5 76 C-5.99 76.495 -5.99 76.495 -7 77 C-8.12706706 79.11015954 -8.12706706 79.11015954 -9.125 81.5625 C-9.47820313 82.38878906 -9.83140625 83.21507812 -10.1953125 84.06640625 C-10.46085938 84.70449219 -10.72640625 85.34257813 -11 86 C-11.66 86 -12.32 86 -13 86 C-13 86.99 -13 87.98 -13 89 C-13.66 89 -14.32 89 -15 89 C-15 89.99 -15 90.98 -15 92 C-16.66666667 93.66666667 -18.33333333 95.33333333 -20 97 C-21.4816402 99.27689756 -22.72669877 101.59487545 -24 104 C-25.98 104 -27.96 104 -30 104 C-30 103.01 -30 102.02 -30 101 C-30.99 101 -31.98 101 -33 101 C-34.6875 99.5 -34.6875 99.5 -36 98 C-37.65 99.32 -39.3 100.64 -41 102 C-39.25890993 96.92182063 -36.31240089 93.54400104 -32.875 89.5 C-31.0230273 87.03070307 -30.05240138 84.88000913 -29 82 C-27 78.6875 -27 78.6875 -25 76 C-24.34 76 -23.68 76 -23 76 C-23 75.34 -23 74.68 -23 74 C-22.34 74 -21.68 74 -21 74 C-20.71125 73.113125 -20.4225 72.22625 -20.125 71.3125 C-19.16851252 68.49617576 -18.13201054 65.74916844 -17 63 C-16.34 63 -15.68 63 -15 63 C-15 62.34 -15 61.68 -15 61 C-14.34 61 -13.68 61 -13 61 C-13 60.01 -13 59.02 -13 58 C-12.34 58 -11.68 58 -11 58 C-10.92523437 57.31035156 -10.85046875 56.62070312 -10.7734375 55.91015625 C-9.86462322 49.41480714 -8.21627636 45.32524188 -4.328125 40.078125 C-2.38551423 37.03851051 -2.22237833 34.55805326 -2 31 C-1.505 30.505 -1.505 30.505 -1 30 C0.46560542 20.06645215 0.09476088 10.01549596 0 0 Z " fill="#0A090A" transform="translate(732,483)"/>
<path d="M0 0 C1.9375 0.25 1.9375 0.25 4 1 C6.32888606 4.49332909 6.50146441 6.86927651 7 11 C7.31966139 12.66934283 7.64731066 14.3373217 8 16 C8.66 16 9.32 16 10 16 C10.48198463 17.24891614 10.96045677 18.49918808 11.4375 19.75 C11.70433594 20.44609375 11.97117187 21.1421875 12.24609375 21.859375 C13 24 13 24 13.41015625 26.203125 C13.70212891 27.09257813 13.70212891 27.09257813 14 28 C14.99 28.33 15.98 28.66 17 29 C18.40563754 31.35841277 19.65870391 33.67233021 20.875 36.125 C24.10604182 42.40749921 27.18560478 48.26166951 32.3125 53.25 C34 55 34 55 34 58 C34.8971875 58.0928125 34.8971875 58.0928125 35.8125 58.1875 C38.92266847 59.34270543 39.60417708 61.06877187 41 64 C41 64.99 41 65.98 41 67 C41.99 67.33 42.98 67.66 44 68 C44.226875 68.804375 44.45375 69.60875 44.6875 70.4375 C45.120625 71.283125 45.55375 72.12875 46 73 C48.00977406 73.45381995 50.02162516 73.90242629 52.046875 74.28125 C54.96110628 75.35368711 55.74307365 77.55682888 57.00390625 80.2578125 C58.62977327 83.10148581 61.24324748 84.35767935 64 86 C64.474375 86.495 64.94875 86.99 65.4375 87.5 C68.53444281 90.4730651 72.48169843 92.42010986 76.46484375 93.94140625 C79.01260982 95.00526542 80.95729648 96.25988076 83.1875 97.875 C87.18473869 100.62185454 91.1296794 102.32041317 95.65625 104.00390625 C98.53903987 105.22909195 100.79378861 106.85923323 103.26171875 108.76171875 C106.29866186 110.92511418 109.63666783 112.40684266 113 114 C112.01 114.495 112.01 114.495 111 115 C109.26740756 114.24812026 107.53601774 113.49278013 105.8203125 112.703125 C103.48446585 111.80086664 101.47665577 111.77484948 99 112 C99 111.34 99 110.68 99 110 C96.36 110.33 93.72 110.66 91 111 C91.99 110.01 92.98 109.02 94 108 C93.4225 107.9175 92.845 107.835 92.25 107.75 C89.38760596 106.79586865 88.11414621 105.11414621 86 103 C83.8618034 102.2127322 83.8618034 102.2127322 82 102 C82 101.34 82 100.68 82 100 C81.01 100 80.02 100 79 100 C79 99.34 79 98.68 79 98 C77.68 98 76.36 98 75 98 C74.67 99.98 74.34 101.96 74 104 C75.65 104 77.3 104 79 104 C78.34 104.99 77.68 105.98 77 107 C68.49759717 104.59365958 61.97431239 99.25929216 55.984375 92.83984375 C54.09818307 90.85854318 54.09818307 90.85854318 51.51953125 90.06640625 C48.20734863 88.6645057 46.87026924 86.77470096 44.6875 83.9375 C41.18850547 79.48051699 37.57116805 75.23134649 33.7265625 71.0703125 C32 69 32 69 30.43359375 66.375 C28.71208427 63.523017 26.62360279 62.01815599 24 60 C21.8480563 56.77208445 21.79913557 55.71599191 22 52 C20.515 51.505 20.515 51.505 19 51 C17.75390625 49.109375 17.75390625 49.109375 16.5625 46.75 C15.11260714 43.9812287 13.82607645 41.79129174 11.8125 39.375 C10 37 10 37 9 33.375 C8.3735246 29.96645683 8.3735246 29.96645683 6.109375 28.69140625 C1.575727 25.05609221 0.3952577 18.43592398 -1 13 C-1.40042083 8.95130049 -1.4956098 5.04275992 -1 1 C-0.67 0.67 -0.34 0.34 0 0 Z M89 108 C89.66 108.33 90.32 108.66 91 109 C90.01 109 89.02 109 88 109 C88.33 108.67 88.66 108.34 89 108 Z " fill="#222221" transform="translate(268,562)"/>
<path d="M0 0 C2.74126281 1.70354963 5.29458905 3.36357356 7.7109375 5.50390625 C7.7109375 6.16390625 7.7109375 6.82390625 7.7109375 7.50390625 C8.3709375 7.50390625 9.0309375 7.50390625 9.7109375 7.50390625 C10.77943872 22.73428874 10.77943872 22.73428874 8.22265625 26.96875 C5.78463391 29.0332451 3.96831284 30.50390625 0.7109375 30.50390625 C-0.2790625 32.97890625 -0.2790625 32.97890625 -1.2890625 35.50390625 C-12.88834879 36.1234527 -12.88834879 36.1234527 -17.5390625 34.06640625 C-30.13035179 22.33361395 -30.13035179 22.33361395 -30.5625 17.3515625 C-30.59601563 16.10246094 -30.62953125 14.85335938 -30.6640625 13.56640625 C-30.71304687 12.31988281 -30.76203125 11.07335937 -30.8125 9.7890625 C-30.2890625 6.50390625 -30.2890625 6.50390625 -27.890625 4.5625 C-25.2890625 3.50390625 -25.2890625 3.50390625 -23.2890625 3.50390625 C-22.9590625 2.51390625 -22.6290625 1.52390625 -22.2890625 0.50390625 C-15.1928589 -2.55212304 -7.10713692 -3.23281881 0 0 Z " fill="#040304" transform="translate(413.2890625,396.49609375)"/>
<path d="M0 0 C4.60815429 4.42518346 5.89941688 7.92180108 6.5 14.1875 C6.64695312 15.25387695 6.64695312 15.25387695 6.796875 16.34179688 C7.37841681 21.49328804 7.37841681 21.49328804 5.62890625 23.8359375 C5.09136719 24.22007812 4.55382812 24.60421875 4 25 C2.49124112 27.35366386 1.16390311 29.59024221 0.125 32.1875 C-1.47503659 34.76533673 -3.1484179 35.06287922 -6 36 C-11.17435211 36.64773549 -15.5909057 36.69125381 -20.3125 34.375 C-21.199375 33.59125 -22.08625 32.8075 -23 32 C-23.55816406 31.64550781 -24.11632812 31.29101562 -24.69140625 30.92578125 C-26.76227494 29.40265973 -27.79100669 28.28963459 -29 26 C-30.08196147 18.77872687 -30.25773522 10.86038452 -26.3359375 4.44921875 C-20.91774136 -1.42841507 -7.33048014 -3.12354432 0 0 Z " fill="#050505" transform="translate(613,400)"/>
<path d="M0 0 C0 0.66 0 1.32 0 2 C0.66 2 1.32 2 2 2 C2.33 2.66 2.66 3.32 3 4 C4.36125 4.4021875 4.36125 4.4021875 5.75 4.8125 C9.61608654 6.22510854 11.17049116 8.03575265 14 11 C23.15101799 18.49325283 23.15101799 18.49325283 33.5078125 23.9921875 C36.05616919 25.02271419 37.96705083 26.26694488 40.1875 27.875 C44.18473869 30.62185454 48.1296794 32.32041317 52.65625 34.00390625 C55.53903987 35.22909195 57.79378861 36.85923323 60.26171875 38.76171875 C63.29866186 40.92511418 66.63666783 42.40684266 70 44 C69.01 44.495 69.01 44.495 68 45 C66.26740756 44.24812026 64.53601774 43.49278013 62.8203125 42.703125 C60.48446585 41.80086664 58.47665577 41.77484948 56 42 C56 41.34 56 40.68 56 40 C53.36 40.33 50.72 40.66 48 41 C48.99 40.01 49.98 39.02 51 38 C50.4225 37.9175 49.845 37.835 49.25 37.75 C46.38760596 36.79586865 45.11414621 35.11414621 43 33 C40.8618034 32.2127322 40.8618034 32.2127322 39 32 C39 31.34 39 30.68 39 30 C38.01 30 37.02 30 36 30 C36 29.34 36 28.68 36 28 C34.68 28 33.36 28 32 28 C31.67 29.98 31.34 31.96 31 34 C32.65 34 34.3 34 36 34 C35.34 34.99 34.68 35.98 34 37 C25.49759717 34.59365958 18.97431239 29.25929216 12.984375 22.83984375 C11.10307652 20.8593162 11.10307652 20.8593162 8.54296875 20.09375 C5.0908163 18.60895325 3.59934566 16.45076859 1.3125 13.5 C-1.69375319 9.61682068 -1.69375319 9.61682068 -5 6 C-5.125 3.375 -5.125 3.375 -5 1 C-2 0 -2 0 0 0 Z M46 38 C46.66 38.33 47.32 38.66 48 39 C47.01 39 46.02 39 45 39 C45.33 38.67 45.66 38.34 46 38 Z " fill="#151515" transform="translate(311,632)"/>
<path d="M0 0 C1.9375 0.25 1.9375 0.25 4 1 C6.32888606 4.49332909 6.50146441 6.86927651 7 11 C7.31966139 12.66934283 7.64731066 14.3373217 8 16 C8.66 16 9.32 16 10 16 C10.13277344 16.60328125 10.26554687 17.2065625 10.40234375 17.828125 C10.57894531 18.62734375 10.75554687 19.4265625 10.9375 20.25 C11.11152344 21.03890625 11.28554688 21.8278125 11.46484375 22.640625 C11.64144531 23.41921875 11.81804687 24.1978125 12 25 C12.12503906 25.73734375 12.25007813 26.4746875 12.37890625 27.234375 C12.58386719 27.81703125 12.78882813 28.3996875 13 29 C13.99 29.33 14.98 29.66 16 30 C15.67 30.66 15.34 31.32 15 32 C14.01 31.67 13.02 31.34 12 31 C11.67 32.98 11.34 34.96 11 37 C10.67 37 10.34 37 10 37 C9.7525 35.906875 9.505 34.81375 9.25 33.6875 C8.40813481 30.00424764 8.40813481 30.00424764 6.09375 28.671875 C1.56672664 25.05701306 0.3902505 18.41641594 -1 13 C-1.40042083 8.95130049 -1.4956098 5.04275992 -1 1 C-0.67 0.67 -0.34 0.34 0 0 Z " fill="#131313" transform="translate(268,562)"/>
<path d="M0 0 C0.495 0.99 0.495 0.99 1 2 C-0.15374612 5.0223624 -1.5167911 7.92197743 -2.87109375 10.859375 C-4.0593757 14.1651836 -4.19933659 16.51890242 -4 20 C-4 20.99 -4 21.98 -4 23 C-4.99 23.33 -5.98 23.66 -7 24 C-7 25.32 -7 26.64 -7 28 C-7.66 28 -8.32 28 -9 28 C-9.33 27.01 -9.66 26.02 -10 25 C-11.56249809 26.31201173 -11.56249809 26.31201173 -13 28 C-13 28.99 -13 29.98 -13 31 C-13.66 31 -14.32 31 -15 31 C-15 30.34 -15 29.68 -15 29 C-15.66 29 -16.32 29 -17 29 C-17 29.66 -17 30.32 -17 31 C-17.99 31.33 -18.98 31.66 -20 32 C-20.33 32.99 -20.66 33.98 -21 35 C-21.66 35 -22.32 35 -23 35 C-22.855625 35.680625 -22.71125 36.36125 -22.5625 37.0625 C-23.24352095 41.63506926 -26.39103619 44.27127126 -30 47 C-31.98 47.495 -31.98 47.495 -34 48 C-32.68 45.36 -31.36 42.72 -30 40 C-29.34 40 -28.68 40 -28 40 C-28 39.34 -28 38.68 -28 38 C-26.02 37.505 -26.02 37.505 -24 37 C-24 36.01 -24 35.02 -24 34 C-23.34 34 -22.68 34 -22 34 C-21.67 32.68 -21.34 31.36 -21 30 C-20.01 30 -19.02 30 -18 30 C-17.731875 29.27425781 -17.46375 28.54851563 -17.1875 27.80078125 C-16.01329619 25.03135976 -14.6605676 22.69080566 -13 20.1875 C-12.484375 19.39730469 -11.96875 18.60710938 -11.4375 17.79296875 C-10.963125 17.20128906 -10.48875 16.60960937 -10 16 C-9.34 16 -8.68 16 -8 16 C-8 15.01 -8 14.02 -8 13 C-7.34 13 -6.68 13 -6 13 C-6 12.01 -6 11.02 -6 10 C-5.3503125 9.38125 -5.3503125 9.38125 -4.6875 8.75 C-2.20676561 6.17738656 -1.31267848 3.31295046 0 0 Z " fill="#F1F1F0" transform="translate(725,559)"/>
<path d="M0 0 C1.32 0 2.64 0 4 0 C4 0.66 4 1.32 4 2 C4.99 2 5.98 2 7 2 C7 2.66 7 3.32 7 4 C7.9075 4.0825 8.815 4.165 9.75 4.25 C13.45758451 5.10559643 14.50232761 6.24394771 17 9 C17.99 9.33 18.98 9.66 20 10 C19.34 10.66 18.68 11.32 18 12 C19.98 12 21.96 12 24 12 C24.5625 13.9375 24.5625 13.9375 25 16 C24 17 24 17 20.6875 17.125 C13.85270701 16.8933121 13.85270701 16.8933121 11.6875 14.625 C9.1519792 12.18338738 6.2612893 11.29220897 3 10 C3 9.01 3 8.02 3 7 C2.360625 6.896875 1.72125 6.79375 1.0625 6.6875 C0.381875 6.460625 -0.29875 6.23375 -1 6 C-1.33 5.01 -1.66 4.02 -2 3 C-1.34 2.01 -0.68 1.02 0 0 Z M14 10 C13.67 10.66 13.34 11.32 13 12 C13.99 11.67 14.98 11.34 16 11 C15.34 10.67 14.68 10.34 14 10 Z " fill="#050404" transform="translate(343,660)"/>
<path d="M0 0 C2.97 0.495 2.97 0.495 6 1 C6.33 1.99 6.66 2.98 7 4 C10.63 4 14.26 4 18 4 C18.33 3.01 18.66 2.02 19 1 C24.27749285 1.53851968 28.25645564 2.77343836 33 5 C32.69542509 7.94422416 32.16507321 8.85920226 29.875 10.8125 C23.80182645 13.32098473 17.65202677 10.45129845 11.80078125 8.25 C7.53426976 6.34583866 3.64497121 3.9249769 0 1 C0 0.67 0 0.34 0 0 Z " fill="#080807" transform="translate(349,672)"/>
<path d="M0 0 C0.33 0.66 0.66 1.32 1 2 C1.66 2 2.32 2 3 2 C4.06850122 17.23038249 4.06850122 17.23038249 1.51171875 21.46484375 C-0.92630359 23.52933885 -2.74262466 25 -6 25 C-6.99 27.475 -6.99 27.475 -8 30 C-10.12472576 30.05386629 -12.24983652 30.09273071 -14.375 30.125 C-15.55835938 30.14820313 -16.74171875 30.17140625 -17.9609375 30.1953125 C-21 30 -21 30 -23 28 C-19.04 28 -15.08 28 -11 28 C-11 26.02 -11 24.04 -11 22 C-10.34 22 -9.68 22 -9 22 C-8.67 20.02 -8.34 18.04 -8 16 C-7.01 15.67 -6.02 15.34 -5 15 C-4.34 16.32 -3.68 17.64 -3 19 C-2.67 18.01 -2.34 17.02 -2 16 C-1.34 16 -0.68 16 0 16 C0 10.72 0 5.44 0 0 Z " fill="#464646" transform="translate(420,402)"/>
<path d="M0 0 C8.37047124 3.25023617 16.1925753 7.59476905 24 12 C25.68689316 12.93859147 27.37437827 13.87611998 29.0625 14.8125 C30.375 15.54166667 31.6875 16.27083333 33 17 C32.01 17.495 32.01 17.495 31 18 C29.26740756 17.24812026 27.53601774 16.49278013 25.8203125 15.703125 C23.48446585 14.80086664 21.47665577 14.77484948 19 15 C19 14.34 19 13.68 19 13 C16.36 13.33 13.72 13.66 11 14 C11.99 13.01 12.98 12.02 14 11 C13.4225 10.9175 12.845 10.835 12.25 10.75 C9.38760596 9.79586865 8.11414621 8.11414621 6 6 C5.29875 5.855625 4.5975 5.71125 3.875 5.5625 C3.25625 5.376875 2.6375 5.19125 2 5 C0.75 2.4375 0.75 2.4375 0 0 Z M9 11 C9.66 11.33 10.32 11.66 11 12 C10.01 12 9.02 12 8 12 C8.33 11.67 8.66 11.34 9 11 Z " fill="#403F3F" transform="translate(348,659)"/>
<path d="M0 0 C1.93271748 1.83608161 3.37051934 3.87262247 5 6 C4.67 6.66 4.34 7.32 4 8 C2.29115995 6.37660195 0.62553283 4.70680947 -1 3 C-1 2.34 -1 1.68 -1 1 C-3.58366245 1.14120016 -6.16682885 1.28778333 -8.75 1.4375 C-9.47960937 1.47681641 -10.20921875 1.51613281 -10.9609375 1.55664062 C-18.1857787 1.77866946 -18.1857787 1.77866946 -23.6875 5.875 C-27.97077334 11.66320721 -27.82176623 18.01498705 -27 25 C-25.56930255 27.51622664 -24.4397781 28.35314978 -22 30 C-22.33 30.66 -22.66 31.32 -23 32 C-25.87245018 30.0251905 -27.26507457 28.95338462 -29 26 C-30.12243538 18.80177312 -30.24573663 10.84076981 -26.3359375 4.44921875 C-20.66304648 -1.70470689 -7.6589029 -2.76352166 0 0 Z " fill="#797678" transform="translate(613,400)"/>
<path d="M0 0 C0.80308594 -0.02900391 1.60617187 -0.05800781 2.43359375 -0.08789062 C6.48503389 -0.13127507 8.54315713 -0.06987642 12.0078125 2.20703125 C12.70648438 2.90183594 13.40515625 3.59664063 14.125 4.3125 C15.115 4.9725 16.105 5.6325 17.125 6.3125 C16.795 7.3025 16.465 8.2925 16.125 9.3125 C15.62613281 8.879375 15.12726563 8.44625 14.61328125 8 C8.82423449 3.51011095 4.49964039 2.69346292 -2.76171875 2.90625 C-7.59949575 3.5375283 -11.69813734 4.42966786 -14.875 8.3125 C-15.205 7.6525 -15.535 6.9925 -15.875 6.3125 C-11.15433359 -0.03598242 -7.41559993 0.0884213 0 0 Z " fill="#969596" transform="translate(402.875,392.6875)"/>
<path d="M0 0 C4.82948236 -0.18939147 9.18671442 0.1505131 13.94921875 0.99609375 C20.88248629 2.09371895 27.61754509 2.26349409 34.625 2.1875 C35.76195312 2.18685547 36.89890625 2.18621094 38.0703125 2.18554688 C45.09639274 2.14928843 52.01584672 1.76535047 59 1 C54.79419552 5.20580448 47.12719338 4.17113484 41.42578125 4.203125 C40.21815376 4.21167511 40.21815376 4.21167511 38.98612976 4.22039795 C37.28935031 4.22979697 35.59255302 4.23636151 33.89575195 4.24023438 C31.33706742 4.24990713 28.77919865 4.28096534 26.22070312 4.3125 C17.06059413 4.36997834 8.7936399 3.92569728 0 1 C0 0.67 0 0.34 0 0 Z " fill="#6E6C6E" transform="translate(444,696)"/>
<path d="M0 0 C0.99 0.33 1.98 0.66 3 1 C2.34 1.66 1.68 2.32 1 3 C0.01 3 -0.98 3 -2 3 C-2.33 3.99 -2.66 4.98 -3 6 C-4.32 6 -5.64 6 -7 6 C-7 6.66 -7 7.32 -7 8 C-8.32 8.33 -9.64 8.66 -11 9 C-11 9.66 -11 10.32 -11 11 C-11.99 11 -12.98 11 -14 11 C-14.33 11.99 -14.66 12.98 -15 14 C-17.64 13.67 -20.28 13.34 -23 13 C-23 13.66 -23 14.32 -23 15 C-24.98 15.33 -26.96 15.66 -29 16 C-29 15.34 -29 14.68 -29 14 C-19.58997722 10.74031891 -19.58997722 10.74031891 -15 10 C-14.67 9.01 -14.34 8.02 -14 7 C-9.74946279 4.45319052 -4.92032635 2.63488082 0 2 C0 1.34 0 0.68 0 0 Z " fill="#363536" transform="translate(584,667)"/>
<path d="M0 0 C0.66 0.33 1.32 0.66 2 1 C1.67 1.99 1.34 2.98 1 4 C-0.07241295 13.02389851 -0.07241295 13.02389851 2.421875 21.47265625 C4.20130393 23.26349177 5.86015514 24.6647716 8 26 C8.91265625 26.57427734 8.91265625 26.57427734 9.84375 27.16015625 C12.72746083 28.28334072 15.16687658 28.19202442 18.25 28.125 C19.86648438 28.09792969 19.86648438 28.09792969 21.515625 28.0703125 C22.33546875 28.04710937 23.1553125 28.02390625 24 28 C24 28.66 24 29.32 24 30 C19.05 30 14.1 30 9 30 C9 29.34 9 28.68 9 28 C7.35 28 5.7 28 4 28 C4 26.68 4 25.36 4 24 C3.360625 23.896875 2.72125 23.79375 2.0625 23.6875 C1.381875 23.460625 0.70125 23.23375 0 23 C-1.28326122 19.15021634 -1.1450798 15.50926659 -1.125 11.5 C-1.12886719 10.72785156 -1.13273438 9.95570313 -1.13671875 9.16015625 C-1.13099051 5.85496263 -1.05207501 3.15622502 0 0 Z " fill="#D0D1D2" transform="translate(584,407)"/>
<path d="M0 0 C0.33 0.99 0.66 1.98 1 3 C0.67 3.33 0.34 3.66 0 4 C-0.061875 4.99 -0.12375 5.98 -0.1875 7 C-0.80868491 12.15155075 -3.98417483 15.93278624 -7 20 C-7.33 18.68 -7.66 17.36 -8 16 C-7.34 16 -6.68 16 -6 16 C-6.66 12.7 -7.32 9.4 -8 6 C-7.34 5.67 -6.68 5.34 -6 5 C-5.67 6.32 -5.34 7.64 -5 9 C-5 7.02 -5 5.04 -5 3 C-3.35 2.67 -1.7 2.34 0 2 C0 1.34 0 0.68 0 0 Z " fill="#E6E7E8" transform="translate(731,510)"/>
<path d="M0 0 C1.9375 0.25 1.9375 0.25 4 1 C6.1519437 4.22791555 6.20086443 5.28400809 6 9 C4 6 4 6 3 3 C2.01 2.67 1.02 2.34 0 2 C0.28151916 4.12636813 0.57553263 6.25108528 0.875 8.375 C1.03742188 9.55835938 1.19984375 10.74171875 1.3671875 11.9609375 C1.7302585 15.09566659 1.7302585 15.09566659 4 17 C4.88671875 18.8046875 4.88671875 18.8046875 5.6875 20.875 C5.95949219 21.55304687 6.23148437 22.23109375 6.51171875 22.9296875 C7.07336741 25.31107782 6.76694846 26.70430191 6 29 C0.57909656 23.57909656 -1.33951248 13.57777612 -1.375 6.1875 C-1.20383037 1.20383037 -1.20383037 1.20383037 0 0 Z " fill="#969698" transform="translate(268,562)"/>
<path d="M0 0 C0.33 0 0.66 0 1 0 C1 2.31 1 4.62 1 7 C1.99 7.33 2.98 7.66 4 8 C3.484375 8.350625 2.96875 8.70125 2.4375 9.0625 C0.59853617 11.09468727 0.59853617 11.09468727 1.3125 14.6875 C1.539375 15.780625 1.76625 16.87375 2 18 C2.99 18 3.98 18 5 18 C4.34 19.32 3.68 20.64 3 22 C-0.56780393 18.96736666 -1.84915043 17.29174102 -2.40234375 12.5546875 C-2.43532998 8.98484476 -2.43174258 5.54483383 -2 2 C-1.34 1.34 -0.68 0.68 0 0 Z " fill="#4B484A" transform="translate(385,401)"/>
<path d="M0 0 C0 1.65 0 3.3 0 5 C-0.99 5.33 -1.98 5.66 -3 6 C-4.58509851 7.72458718 -5.97553847 9.54950073 -7.40234375 11.40625 C-9 13 -9 13 -11.12890625 13.53125 C-12.05509766 13.76328125 -12.05509766 13.76328125 -13 14 C-13.33 14.99 -13.66 15.98 -14 17 C-15.65 17.33 -17.3 17.66 -19 18 C-18.67 17.34 -18.34 16.68 -18 16 C-17.34 16 -16.68 16 -16 16 C-16 15.34 -16 14.68 -16 14 C-15.34 14 -14.68 14 -14 14 C-14 13.34 -14 12.68 -14 12 C-13.01 12 -12.02 12 -11 12 C-11 10.68 -11 9.36 -11 8 C-8 6 -8 6 -5 6 C-5 5.34 -5 4.68 -5 4 C-1.35294118 0 -1.35294118 0 0 0 Z " fill="#CACACA" transform="translate(679,617)"/>
<path d="M0 0 C1.5625 1.75 1.5625 1.75 3 4 C2.6875 6.25 2.6875 6.25 2 8 C2.66 8 3.32 8 4 8 C4.33 7.01 4.66 6.02 5 5 C4.85892253 6.45880109 4.71197585 7.91703551 4.5625 9.375 C4.48128906 10.18710937 4.40007813 10.99921875 4.31640625 11.8359375 C4 14 4 14 3 16 C2.34 16 1.68 16 1 16 C0.67 16.99 0.34 17.98 0 19 C-0.33 17.35 -0.66 15.7 -1 14 C-1.99 14.495 -1.99 14.495 -3 15 C-2.690625 14.113125 -2.38125 13.22625 -2.0625 12.3125 C-0.68260818 8.01048432 0 4.52920058 0 0 Z " fill="#F1F2F1" transform="translate(718,525)"/>
<path d="M0 0 C0.66 0.33 1.32 0.66 2 1 C1.34 2.32 0.68 3.64 0 5 C-0.66 5 -1.32 5 -2 5 C-1.855625 5.680625 -1.71125 6.36125 -1.5625 7.0625 C-2.24352095 11.63506926 -5.39103619 14.27127126 -9 17 C-10.32 17.33 -11.64 17.66 -13 18 C-11.68 15.36 -10.36 12.72 -9 10 C-8.34 10 -7.68 10 -7 10 C-7 9.34 -7 8.68 -7 8 C-5.68 7.67 -4.36 7.34 -3 7 C-3 6.01 -3 5.02 -3 4 C-2.34 4 -1.68 4 -1 4 C-0.67 2.68 -0.34 1.36 0 0 Z " fill="#ABADB0" transform="translate(704,589)"/>
<path d="M0 0 C-4.75 3 -4.75 3 -7 3 C-7.33 3.99 -7.66 4.98 -8 6 C-12.95 5.67 -17.9 5.34 -23 5 C-19.30589481 3.1529474 -16.37441667 2.29967673 -12.375 1.4375 C-2.41086957 -0.72326087 -2.41086957 -0.72326087 0 0 Z " fill="#313132" transform="translate(526,693)"/>
<path d="M0 0 C1.299375 0.4640625 1.299375 0.4640625 2.625 0.9375 C5.76313136 1.92543024 8.75898907 2.48438462 12 3 C12.66 3.33 13.32 3.66 14 4 C13.67 5.32 13.34 6.64 13 8 C14.65 8 16.3 8 18 8 C17.01 9.485 17.01 9.485 16 11 C9.34549416 8.97988216 4.83968102 6.01988191 0 1 C0 0.67 0 0.34 0 0 Z " fill="#212021" transform="translate(329,658)"/>
<path d="M0 0 C0.99 0 1.98 0 3 0 C4.35390505 3.92937857 3.96026955 7.80213952 3.6875 11.875 C3.65205078 12.56980469 3.61660156 13.26460938 3.58007812 13.98046875 C3.308649 18.28282289 2.54420499 21.97876414 1 26 C0.67 26 0.34 26 0 26 C0 17.42 0 8.84 0 0 Z " fill="#7F7E7F" transform="translate(732,483)"/>
<path d="M0 0 C2.97 0.495 2.97 0.495 6 1 C6.33 1.99 6.66 2.98 7 4 C10.3 4.33 13.6 4.66 17 5 C17.66 6.65 18.32 8.3 19 10 C12.05706666 8.4449086 5.68808966 5.22960513 0 1 C0 0.67 0 0.34 0 0 Z " fill="#3A3A3A" transform="translate(349,672)"/>
<path d="M0 0 C0.33 0.66 0.66 1.32 1 2 C-2.24954509 4.80940497 -5.49143266 7.60199077 -8.875 10.25 C-11.08249688 11.82654503 -11.08249688 11.82654503 -12 14 C-15.34510352 15.62734766 -17.18835834 16 -21 16 C-21.33 16.99 -21.66 17.98 -22 19 C-22.33 18.01 -22.66 17.02 -23 16 C-22.195625 15.71125 -21.39125 15.4225 -20.5625 15.125 C-17.8673532 14.26737432 -17.8673532 14.26737432 -17 12 C-16.2575 11.71125 -15.515 11.4225 -14.75 11.125 C-10.46022702 9.37009287 -7.56523024 6.56523024 -4.3125 3.3125 C-2 1 -2 1 0 0 Z " fill="#77787A" transform="translate(657,635)"/>
<path d="M0 0 C-2.64738916 1.4606285 -3.89448334 2 -7 2 C-7 2.66 -7 3.32 -7 4 C-14.92 4.495 -14.92 4.495 -23 5 C-22.67 4.34 -22.34 3.68 -22 3 C-20.08227539 2.38989258 -20.08227539 2.38989258 -17.59765625 1.89453125 C-16.70755859 1.71599609 -15.81746094 1.53746094 -14.90039062 1.35351562 C-13.49563477 1.08571289 -13.49563477 1.08571289 -12.0625 0.8125 C-10.66354492 0.52729492 -10.66354492 0.52729492 -9.23632812 0.23632812 C-2.26099026 -1.13049513 -2.26099026 -1.13049513 0 0 Z " fill="#A3A3A4" transform="translate(534,705)"/>
<path d="M0 0 C1.65 0 3.3 0 5 0 C2.87493522 4.25012955 -3.63498554 5.71842725 -7.97900391 7.34863281 C-13.16628511 9.02049392 -18.5901458 9.52314355 -24 10 C-23.67 9.34 -23.34 8.68 -23 8 C-20.66255706 7.53193355 -18.30260921 7.17330206 -15.9375 6.875 C-14.64714844 6.70742188 -13.35679687 6.53984375 -12.02734375 6.3671875 C-10.52880859 6.18542969 -10.52880859 6.18542969 -9 6 C-9 5.34 -9 4.68 -9 4 C-7.68 4 -6.36 4 -5 4 C-5 3.34 -5 2.68 -5 2 C-3.35 2 -1.7 2 0 2 C0 1.34 0 0.68 0 0 Z " fill="#464648" transform="translate(559,693)"/>
<path d="M0 0 C3.37462715 0.54723683 5.08235 1.0549 8 3 C8 3.66 8 4.32 8 5 C6.35 4.67 4.7 4.34 3 4 C3 4.66 3 5.32 3 6 C1.6875 7.625 1.6875 7.625 0 9 C-0.99 9 -1.98 9 -3 9 C-3 8.01 -3 7.02 -3 6 C-2.34 5.67 -1.68 5.34 -1 5 C-1.99 4.67 -2.98 4.34 -4 4 C-4 3.34 -4 2.68 -4 2 C-1.525 2.495 -1.525 2.495 1 3 C0.67 2.01 0.34 1.02 0 0 Z " fill="#D9D9D8" transform="translate(341,668)"/>
<path d="M0 0 C-1.12073862 0.83905565 -2.24674547 1.67107831 -3.375 2.5 C-4.31472656 3.19609375 -4.31472656 3.19609375 -5.2734375 3.90625 C-7 5 -7 5 -9 5 C-9 5.66 -9 6.32 -9 7 C-13.455 8.485 -13.455 8.485 -18 10 C-18 9.01 -18 8.02 -18 7 C-17.01 7 -16.02 7 -15 7 C-15 6.34 -15 5.68 -15 5 C-14.01 5 -13.02 5 -12 5 C-12 4.34 -12 3.68 -12 3 C-10.3789897 2.30314502 -8.75303934 1.61777139 -7.125 0.9375 C-6.22007812 0.55464844 -5.31515625 0.17179688 -4.3828125 -0.22265625 C-2 -1 -2 -1 0 0 Z " fill="#A5A5A5" transform="translate(609,654)"/>
<path d="M0 0 C7.00897689 1.72931766 13.50288191 3.83967342 20 7 C20 7.33 20 7.66 20 8 C18.58376784 8.05447047 17.16691809 8.09300508 15.75 8.125 C14.96109375 8.14820313 14.1721875 8.17140625 13.359375 8.1953125 C10.79268059 7.9828378 9.2083933 7.28654105 7 6 C7 5.01 7 4.02 7 3 C6.030625 2.87625 5.06125 2.7525 4.0625 2.625 C3.051875 2.41875 2.04125 2.2125 1 2 C0.67 1.34 0.34 0.68 0 0 Z " fill="#A3A1A1" transform="translate(393,693)"/>
<path d="M0 0 C3.45412296 1.33468794 6.7601692 2.8258663 10.0625 4.5 C10.89910156 4.9228125 11.73570312 5.345625 12.59765625 5.78125 C13.39042969 6.1834375 14.18320312 6.585625 15 7 C16.33288197 7.66756863 17.66605109 8.3345659 19 9 C17 10 17 10 15.046875 9.51171875 C13.47259077 8.94679703 11.89837548 8.38168314 10.32421875 7.81640625 C7.84010839 6.90535496 7.84010839 6.90535496 4.5625 6.125 C2 5 2 5 0.625 2.375 C0.41875 1.59125 0.2125 0.8075 0 0 Z " fill="#535252" transform="translate(348,659)"/>
<path d="M0 0 C0.66 0.33 1.32 0.66 2 1 C-1.70060202 4.92488093 -5.4906925 8.02215543 -10 11 C-10.66 11 -11.32 11 -12 11 C-12.33 11.99 -12.66 12.98 -13 14 C-13.66 13.01 -14.32 12.02 -15 11 C-14.01 10.67 -13.02 10.34 -12 10 C-11.67 9.01 -11.34 8.02 -11 7 C-9.27373015 6.25086403 -7.54413614 5.50704238 -5.7890625 4.828125 C-3.33233425 3.69094948 -1.75141232 2.03163829 0 0 Z " fill="#C5C5C6" transform="translate(666,606)"/>
<path d="M0 0 C0.33 0.66 0.66 1.32 1 2 C-0.175625 2.12375 -0.175625 2.12375 -1.375 2.25 C-2.24125 2.4975 -3.1075 2.745 -4 3 C-5.09166275 4.93330603 -5.09166275 4.93330603 -6 7 C-9.30596404 9.20397603 -13.19662816 9.97601527 -17 11 C-16.67 10.01 -16.34 9.02 -16 8 C-13.78515625 6.9375 -13.78515625 6.9375 -11.0625 6 C-6.787909 4.56652893 -6.787909 4.56652893 -4 1 C-1.875 0.3125 -1.875 0.3125 0 0 Z " fill="#BFBFBF" transform="translate(623,662)"/>
<path d="M0 0 C8.82285688 1.75034096 16.81410352 4.26841115 25 8 C20.02090386 9.49586579 16.72946476 7.88394866 12.1875 5.5625 C8.23871154 3.62681938 4.1894305 2.31268822 0 1 C0 0.67 0 0.34 0 0 Z " fill="#818080" transform="translate(382,677)"/>
<path d="M0 0 C0.99 0.33 1.98 0.66 3 1 C2.34 1.66 1.68 2.32 1 3 C0.01 3 -0.98 3 -2 3 C-2.33 3.99 -2.66 4.98 -3 6 C-4.32 6 -5.64 6 -7 6 C-7 6.66 -7 7.32 -7 8 C-9.70879335 9.35439668 -12.00933268 9.06501451 -15 9 C-13.18419691 5.36839382 -8.65073169 4.40698827 -5 3 C-1.9375 2.25 -1.9375 2.25 0 2 C0 1.34 0 0.68 0 0 Z " fill="#454644" transform="translate(584,667)"/>
<path d="M0 0 C6.6 0 13.2 0 20 0 C16.82398031 3.17601969 13.86609252 3.17992794 9.5625 3.25 C8.61503906 3.27578125 7.66757812 3.3015625 6.69140625 3.328125 C4 3 4 3 0 0 Z " fill="#5F6062" transform="translate(592,433)"/>
<path d="M0 0 C4.455 0.99 4.455 0.99 9 2 C9 2.33 9 2.66 9 3 C7.84371094 3.14695312 7.84371094 3.14695312 6.6640625 3.296875 C5.66117187 3.44640625 4.65828125 3.5959375 3.625 3.75 C2.62726563 3.88921875 1.62953125 4.0284375 0.6015625 4.171875 C-2.14561047 4.74386889 -2.14561047 4.74386889 -3.3515625 7.078125 C-3.56554687 7.71234375 -3.77953125 8.3465625 -4 9 C-6.475 8.01 -6.475 8.01 -9 7 C-7.1625556 5.77503707 -5.29237027 4.59564016 -3.375 3.5 C-0.8942773 2.21973738 -0.8942773 2.21973738 0 0 Z " fill="#232223" transform="translate(382,678)"/>
<path d="M0 0 C0.66 0.33 1.32 0.66 2 1 C1.01 1.33 0.02 1.66 -1 2 C-1 2.66 -1 3.32 -1 4 C-2.828125 5.69140625 -2.828125 5.69140625 -5.25 7.5625 C-6.03890625 8.18253906 -6.8278125 8.80257812 -7.640625 9.44140625 C-9.85122766 10.90172158 -11.41499341 11.56718926 -14 12 C-13.360625 11.4225 -12.72125 10.845 -12.0625 10.25 C-10.01776132 8.01937599 -9.41794801 6.92563609 -9 4 C-5.535 3.505 -5.535 3.505 -2 3 C-2 2.34 -2 1.68 -2 1 C-1.34 0.67 -0.68 0.34 0 0 Z " fill="#AAAAAC" transform="translate(642,627)"/>
<path d="M0 0 C3.6697989 2.67796136 5.77981257 5.06421319 8 9 C9.58245275 10.75149165 9.58245275 10.75149165 11 12 C10.67 12.66 10.34 13.32 10 14 C9.5875 13.54625 9.175 13.0925 8.75 12.625 C7.10510077 10.90498625 7.10510077 10.90498625 5 10.1875 C2.35122675 8.61479088 2.08346821 7.29213874 1.25 4.375 C1.00765625 3.55773437 0.7653125 2.74046875 0.515625 1.8984375 C0.34546875 1.27195312 0.1753125 0.64546875 0 0 Z " fill="#B4B3B4" transform="translate(295,624)"/>
<path d="M0 0 C0.66 0 1.32 0 2 0 C1.49701212 4.40114397 -0.08772731 6.71195019 -3 10 C-3 9.01 -3 8.02 -3 7 C-3.9590625 6.566875 -3.9590625 6.566875 -4.9375 6.125 C-7 5 -7 5 -8 3 C-6.35 2.67 -4.7 2.34 -3 2 C-2.67 2.99 -2.34 3.98 -2 5 C-1.34 3.35 -0.68 1.7 0 0 Z " fill="#DFE0E0" transform="translate(744,483)"/>
<path d="M0 0 C0.99 0 1.98 0 3 0 C3 4.95 3 9.9 3 15 C2.01 15.33 1.02 15.66 0 16 C-1.20882096 18.00016466 -1.20882096 18.00016466 -2 20 C-2.66 19.67 -3.32 19.34 -4 19 C-1.125 14.125 -1.125 14.125 0 13 C0.07258946 10.81360547 0.08373783 8.62499611 0.0625 6.4375 C0.05347656 5.23996094 0.04445313 4.04242188 0.03515625 2.80859375 C0.02355469 1.88175781 0.01195312 0.95492188 0 0 Z " fill="#DCDEDC" transform="translate(620,410)"/>
<path d="M0 0 C0.33 0.66 0.66 1.32 1 2 C-3.85526316 7.25986842 -3.85526316 7.25986842 -8 8 C-8.33 8.66 -8.66 9.32 -9 10 C-10.32 9.67 -11.64 9.34 -13 9 C-11.87926138 8.16094435 -10.75325453 7.32892169 -9.625 6.5 C-8.99851562 6.0359375 -8.37203125 5.571875 -7.7265625 5.09375 C-6 4 -6 4 -4 4 C-4 3.34 -4 2.68 -4 2 C-2.68 1.34 -1.36 0.68 0 0 Z " fill="#5C5C5B" transform="translate(622,643)"/>
<path d="M0 0 C0.33 0.66 0.66 1.32 1 2 C0.45730469 2.65226563 -0.08539062 3.30453125 -0.64453125 3.9765625 C-6.03122438 10.5496613 -6.03122438 10.5496613 -10 18 C-10.66 17.67 -11.32 17.34 -12 17 C-11.57843307 12.08171916 -9.52992419 10.29459591 -6 7 C-3.95693442 4.7027502 -1.97540407 2.35555055 0 0 Z " fill="#747475" transform="translate(701,568)"/>
<path d="M0 0 C0.66 0 1.32 0 2 0 C2 1.98 2 3.96 2 6 C1.01 6 0.02 6 -1 6 C-1.33 7.32 -1.66 8.64 -2 10 C-2.99 10 -3.98 10 -5 10 C-4.38479725 6.00118212 -2.39731331 3.19641774 0 0 Z " fill="#2D2C2C" transform="translate(707,559)"/>
<path d="M0 0 C0 3.69418201 -1.28179295 5.77836178 -3 9 C-3.66 9 -4.32 9 -5 9 C-5 9.66 -5 10.32 -5 11 C-5.66 11 -6.32 11 -7 11 C-7.28875 11.804375 -7.5775 12.60875 -7.875 13.4375 C-9 16 -9 16 -11 17 C-11 16.01 -11 15.02 -11 14 C-10.34 14 -9.68 14 -9 14 C-8.34 12.02 -7.68 10.04 -7 8 C-6.01 8 -5.02 8 -4 8 C-3.71125 7.05125 -3.4225 6.1025 -3.125 5.125 C-2 2 -2 2 0 0 Z " fill="#AFADB0" transform="translate(714,548)"/>
<path d="M0 0 C0.66 0.33 1.32 0.66 2 1 C1.67 2.98 1.34 4.96 1 7 C0.01 7.33 -0.98 7.66 -2 8 C-2 7.01 -2 6.02 -2 5 C-4.97 7.475 -4.97 7.475 -8 10 C-8.33 9.01 -8.66 8.02 -9 7 C-8.34 7 -7.68 7 -7 7 C-7 6.34 -7 5.68 -7 5 C-5.03277992 3.61876037 -3.03131672 2.28511874 -1 1 C-0.67 0.67 -0.34 0.34 0 0 Z " fill="#EFEFEE" transform="translate(615,430)"/>
<path d="M0 0 C0.33 0 0.66 0 1 0 C1 2.31 1 4.62 1 7 C-0.32 7 -1.64 7 -3 7 C-3.66 8.65 -4.32 10.3 -5 12 C-5.66 11.67 -6.32 11.34 -7 11 C-6.02262231 9.35310365 -5.0430468 7.70751146 -4.0625 6.0625 C-3.51722656 5.14597656 -2.97195313 4.22945312 -2.41015625 3.28515625 C-1 1 -1 1 0 0 Z " fill="#AFB0B3" transform="translate(715,575)"/>
<path d="M0 0 C0.99 0 1.98 0 3 0 C3.25 2.8125 3.25 2.8125 3 6 C1.125 7.875 1.125 7.875 -1 9 C-1.66 9 -2.32 9 -3 9 C-2.67 8.01 -2.34 7.02 -2 6 C-2.33 5.67 -2.66 5.34 -3 5 C-1.125 1.125 -1.125 1.125 0 0 Z M0 2 C-0.33 2.99 -0.66 3.98 -1 5 C-0.34 5 0.32 5 1 5 C0.67 4.01 0.34 3.02 0 2 Z " fill="#E9EAE9" transform="translate(649,615)"/>
<path d="M0 0 C0 0.99 0 1.98 0 3 C-2 5 -2 5 -4.75 5.265625 C-5.8225 5.26046875 -6.895 5.2553125 -8 5.25 C-9.60875 5.25773437 -9.60875 5.25773437 -11.25 5.265625 C-14 5 -14 5 -16 3 C-15.18015625 2.95101563 -14.3603125 2.90203125 -13.515625 2.8515625 C-12.43796875 2.77679688 -11.3603125 2.70203125 -10.25 2.625 C-9.18265625 2.55539062 -8.1153125 2.48578125 -7.015625 2.4140625 C-4.19793568 2.0271777 -2.4169634 1.44313834 0 0 Z " fill="#878889" transform="translate(413,427)"/>
<path d="M0 0 C1.5 1.3125 1.5 1.3125 3 3 C3 3.99 3 4.98 3 6 C3.598125 6.04125 4.19625 6.0825 4.8125 6.125 C7 7 7 7 8.75 10.0625 C9.1625 11.031875 9.575 12.00125 10 13 C6.81839311 12.42152602 4.64134902 11.89983211 2.7109375 9.19140625 C1.04917911 5.93364251 0 3.70254152 0 0 Z " fill="#7F7D7E" transform="translate(299,614)"/>
<path d="M0 0 C1.45606519 4.52092968 0.27032841 7.51648796 -1 12 C-1.66 12 -2.32 12 -3 12 C-3.33 12.66 -3.66 13.32 -4 14 C-3.46148032 8.72250715 -2.22656164 4.74354436 0 0 Z " fill="#9A9D9F" transform="translate(742,521)"/>
<path d="M0 0 C0.33 0 0.66 0 1 0 C1.21824777 6.0018137 0.5056904 11.19233704 -1 17 C-1.66 17 -2.32 17 -3 17 C-3.18088452 12.38744478 -2.8784126 9.19880464 -1 5 C-0.63128912 3.34080104 -0.28718326 1.6752357 0 0 Z " fill="#333131" transform="translate(733,504)"/>
<path d="M0 0 C0 0.99 0 1.98 0 3 C-2.3125 5.25 -2.3125 5.25 -5 7 C-5.99 6.67 -6.98 6.34 -8 6 C-7.34 5.01 -6.68 4.02 -6 3 C-5.34 3 -4.68 3 -4 3 C-4 2.34 -4 1.68 -4 1 C-2.68 0.67 -1.36 0.34 0 0 Z " fill="#F0F0EF" transform="translate(662,634)"/>
<path d="M0 0 C0.33 0.99 0.66 1.98 1 3 C-2.90456127 6.53269829 -5.80177328 8.63855967 -11 10 C-7.86599555 5.88102272 -6.00610314 3.66870105 -1 2 C-0.67 1.34 -0.34 0.68 0 0 Z " fill="#B6B6B8" transform="translate(690,607)"/>
<path d="M0 0 C1 2 1 2 0.14453125 4.78515625 C-0.51482422 6.40744141 -0.51482422 6.40744141 -1.1875 8.0625 C-1.61417969 9.14660156 -2.04085937 10.23070312 -2.48046875 11.34765625 C-4 14 -4 14 -6.17578125 14.87109375 C-6.77777344 14.91363281 -7.37976563 14.95617187 -8 15 C-8 14.34 -8 13.68 -8 13 C-7.34 13 -6.68 13 -6 13 C-6 12.01 -6 11.02 -6 10 C-5.3503125 9.38125 -5.3503125 9.38125 -4.6875 8.75 C-2.20676561 6.17738656 -1.31267848 3.31295046 0 0 Z " fill="#B3B2B5" transform="translate(725,559)"/>
<path d="M0 0 C0.33 1.32 0.66 2.64 1 4 C0.34 4 -0.32 4 -1 4 C-0.34 5.32 0.32 6.64 1 8 C0.34 8.66 -0.32 9.32 -1 10 C-1.99 10 -2.98 10 -4 10 C-4 10.99 -4 11.98 -4 13 C-4.66 13 -5.32 13 -6 13 C-5.34 11.02 -4.68 9.04 -4 7 C-3.34 7 -2.68 7 -2 7 C-2 5.68 -2 4.36 -2 3 C-1.34 3 -0.68 3 0 3 C0 2.01 0 1.02 0 0 Z " fill="#E5E5E5" transform="translate(731,550)"/>
<path d="M0 0 C1.32 0.33 2.64 0.66 4 1 C4 1.99 4 2.98 4 4 C3.34 4 2.68 4 2 4 C2 6.97 2 9.94 2 13 C1.67 13 1.34 13 1 13 C0.67 8.71 0.34 4.42 0 0 Z " fill="#323130" transform="translate(268,564)"/>
<path d="M0 0 C0.33 0 0.66 0 1 0 C0.85892253 1.45880109 0.71197585 2.91703551 0.5625 4.375 C0.48128906 5.18710937 0.40007813 5.99921875 0.31640625 6.8359375 C0 9 0 9 -1 11 C-1.66 11 -2.32 11 -3 11 C-3.33 11.99 -3.66 12.98 -4 14 C-3.67 10.7 -3.34 7.4 -3 4 C-2.01 3.67 -1.02 3.34 0 3 C0 2.01 0 1.02 0 0 Z " fill="#B1B2B3" transform="translate(722,530)"/>
<path d="M0 0 C0.33 0.99 0.66 1.98 1 3 C0.67 3.33 0.34 3.66 0 4 C-0.103125 5.0725 -0.20625 6.145 -0.3125 7.25 C-1.05903089 11.32198667 -2.20771663 13.02756932 -5 16 C-4.48713167 13.43565836 -3.97324793 10.87218457 -3.4375 8.3125 C-2.93803611 6.06473013 -2.93803611 6.06473013 -3 4 C-3.66 3.67 -4.32 3.34 -5 3 C-3.35 2.67 -1.7 2.34 0 2 C0 1.34 0 0.68 0 0 Z " fill="#ACACAE" transform="translate(731,510)"/>
<path d="M0 0 C0.66 0 1.32 0 2 0 C2.33 1.98 2.66 3.96 3 6 C1.35 6.66 -0.3 7.32 -2 8 C-2 6.35 -2 4.7 -2 3 C-1.34 3 -0.68 3 0 3 C0 2.01 0 1.02 0 0 Z " fill="#1A1718" transform="translate(411,421)"/>
<path d="M0 0 C5.45479185 0.56820748 9.91059256 1.94637945 15 4 C10.47907032 5.45606519 7.48351204 4.27032841 3 3 C3 2.34 3 1.68 3 1 C2.01 0.67 1.02 0.34 0 0 Z " fill="#9C9C9C" transform="translate(415,701)"/>
<path d="M0 0 C0.99 0 1.98 0 3 0 C2.34 2.31 1.68 4.62 1 7 C-3 7 -3 7 -4.75 5.5 C-5.1625 5.005 -5.575 4.51 -6 4 C-4.35 4 -2.7 4 -1 4 C-0.67 2.68 -0.34 1.36 0 0 Z " fill="#141416" transform="translate(609,401)"/>
<path d="M0 0 C1.32 0 2.64 0 4 0 C4 0.99 4 1.98 4 3 C4.66 3.33 5.32 3.66 6 4 C6.99 5.485 6.99 5.485 8 7 C7.67 7.99 7.34 8.98 7 10 C3.66442368 7.0094833 1.84916079 4.06815373 0 0 Z " fill="#CDC9CB" transform="translate(306,623)"/>
<path d="M0 0 C0.99 0.33 1.98 0.66 3 1 C3.70572696 3.04660819 4.0095872 5.05592534 4.375 7.1875 C4.58125 7.785625 4.7875 8.38375 5 9 C5.99 9.33 6.98 9.66 8 10 C5.50907189 11.24546405 4.58919267 10.7767578 2 10 C1.855625 8.906875 1.71125 7.81375 1.5625 6.6875 C1.11711896 3.06877013 1.11711896 3.06877013 0 0 Z " fill="#C6C5C5" transform="translate(287,613)"/>
<path d="M0 0 C2.97 0.495 2.97 0.495 6 1 C6.33 1.99 6.66 2.98 7 4 C7.99 4 8.98 4 10 4 C10.33 4.99 10.66 5.98 11 7 C6.89188572 5.55007731 3.53144334 3.54592427 0 1 C0 0.67 0 0.34 0 0 Z " fill="#5C5B5A" transform="translate(349,672)"/>
<path d="M0 0 C3.40312738 1.05875074 6.01353231 2.00902154 9 4 C9.6875 6.125 9.6875 6.125 10 8 C6.05205855 6.32971708 3.18203882 3.8204435 0 1 C0 0.67 0 0.34 0 0 Z " fill="#51504F" transform="translate(329,658)"/>
<path d="M0 0 C4.08378283 0.74250597 8.01939223 1.82923301 12 3 C12 3.66 12 4.32 12 5 C9.03 4.67 6.06 4.34 3 4 C3 3.34 3 2.68 3 2 C2.01 2 1.02 2 0 2 C0 1.34 0 0.68 0 0 Z " fill="#C0BFBF" transform="translate(376,687)"/>
<path d="M0 0 C0 0.66 0 1.32 0 2 C-3.21451269 3.60725635 -6.43612536 3.05748185 -10 3 C-8.0130571 -0.97388579 -3.91761109 -0.08705802 0 0 Z " fill="#ABA9AB" transform="translate(542,687)"/>
<path d="M0 0 C3.77545388 1.09068668 6.47043472 1.9083091 9 5 C5.25 6.125 5.25 6.125 3 5 C3 4.34 3 3.68 3 3 C2.34 3 1.68 3 1 3 C0.67 2.01 0.34 1.02 0 0 Z " fill="#C3C1C1" transform="translate(367,682)"/>
<path d="M0 0 C1.98 0 3.96 0 6 0 C6.97608217 2.92824652 7.08226668 4.95613276 7 8 C6.34 8 5.68 8 5 8 C4.731875 7.030625 4.46375 6.06125 4.1875 5.0625 C3.795625 4.051875 3.40375 3.04125 3 2 C2.01 1.67 1.02 1.34 0 1 C0 0.67 0 0.34 0 0 Z " fill="#EBEAEA" transform="translate(297,612)"/>
<path d="M0 0 C3 0 3 0 6 1 C4.02 1.99 4.02 1.99 2 3 C2.061875 3.78375 2.12375 4.5675 2.1875 5.375 C2.125625 6.24125 2.06375 7.1075 2 8 C1.01 8.66 0.02 9.32 -1 10 C-1 8.68 -1 7.36 -1 6 C-0.34 6 0.32 6 1 6 C0.67 4.02 0.34 2.04 0 0 Z " fill="#CFD0D0" transform="translate(688,577)"/>
<path d="M0 0 C0.77321882 2.98241547 1.41196203 5.97580475 2 9 C0.68 9 -0.64 9 -2 9 C-2.33 7.68 -2.66 6.36 -3 5 C-2.34 5 -1.68 5 -1 5 C-0.67 3.35 -0.34 1.7 0 0 Z " fill="#DBDCDD" transform="translate(738,535)"/>
<path d="M0 0 C3.95820859 0.56545837 6.6659053 1.80902348 10 4 C9.67 4.99 9.34 5.98 9 7 C7.4972763 6.02501855 5.99788037 5.04490611 4.5 4.0625 C3.6646875 3.51722656 2.829375 2.97195313 1.96875 2.41015625 C1.3190625 1.94480469 0.669375 1.47945313 0 1 C0 0.67 0 0.34 0 0 Z " fill="#7C7A7B" transform="translate(410,395)"/>
<path d="M0 0 C3.3 0.33 6.6 0.66 10 1 C10.33 1.99 10.66 2.98 11 4 C3.375 3.375 3.375 3.375 0 0 Z " fill="#383837" transform="translate(412,689)"/>
<path d="M0 0 C2.54384726 1.27192363 2.69368156 2.19948469 3.6875 4.8125 C3.95949219 5.49957031 4.23148437 6.18664062 4.51171875 6.89453125 C5.06812731 9.29376496 4.77364938 10.6894364 4 13 C1.47519307 10.47519307 1.44261367 8.86176966 0.875 5.375 C0.70742188 4.37210938 0.53984375 3.36921875 0.3671875 2.3359375 C0.24601562 1.56507813 0.12484375 0.79421875 0 0 Z " fill="#6D6D6F" transform="translate(270,578)"/>
<path d="M0 0 C-0.66 0 -1.32 0 -2 0 C-2.33 0.99 -2.66 1.98 -3 3 C-5.64 2.67 -8.28 2.34 -11 2 C-6.98764085 -0.6749061 -4.6342454 -1.48957888 0 0 Z " fill="#B1B1B3" transform="translate(545,702)"/>
<path d="M0 0 C1.65 0.99 3.3 1.98 5 3 C4.01 4.485 4.01 4.485 3 6 C1.35 5.67 -0.3 5.34 -2 5 C-1.34 3.35 -0.68 1.7 0 0 Z " fill="#050404" transform="translate(338,656)"/>
<path d="M0 0 C1.32 0.33 2.64 0.66 4 1 C3.01 1.33 2.02 1.66 1 2 C1 2.99 1 3.98 1 5 C-0.98 5.33 -2.96 5.66 -5 6 C-3.35 4.02 -1.7 2.04 0 0 Z " fill="#C7C7C8" transform="translate(636,651)"/>
<path d="M0 0 C2.31 0 4.62 0 7 0 C6.34 0.66 5.68 1.32 5 2 C5 2.99 5 3.98 5 5 C4.67 5.99 4.34 6.98 4 8 C3.34 8 2.68 8 2 8 C2.33 5.69 2.66 3.38 3 1 C2.01 0.67 1.02 0.34 0 0 Z " fill="#F1F2F2" transform="translate(597,437)"/>
<path d="M0 0 C3.3 0.99 6.6 1.98 10 3 C9.01 3.66 8.02 4.32 7 5 C7 4.34 7 3.68 7 3 C5.35 3.33 3.7 3.66 2 4 C1.34 2.68 0.68 1.36 0 0 Z M0 4 C0.66 4.33 1.32 4.66 2 5 C1.01 5 0.02 5 -1 5 C-0.67 4.67 -0.34 4.34 0 4 Z " fill="#222020" transform="translate(357,666)"/>
<path d="M0 0 C0.144375 0.598125 0.28875 1.19625 0.4375 1.8125 C0.8872439 3.56150404 1.42892341 5.28677023 2 7 C-1.36720387 5.60667426 -2.9859524 4.0210714 -5 1 C-3.35 0.67 -1.7 0.34 0 0 Z " fill="#BBB9B9" transform="translate(335,645)"/>
<path d="M0 0 C2.64 0.99 5.28 1.98 8 3 C8 3.33 8 3.66 8 4 C5.03 4 2.06 4 -1 4 C-1.33 3.34 -1.66 2.68 -2 2 C-1.34 2 -0.68 2 0 2 C0 1.34 0 0.68 0 0 Z " fill="#DEDDDC" transform="translate(392,693)"/>
<path d="M0 0 C-4.44 2.96 -4.44 2.96 -7 4 C-7.99 3.67 -8.98 3.34 -10 3 C-8.0130571 -0.97388579 -3.91761109 -0.08705802 0 0 Z " fill="#353536" transform="translate(574,689)"/>
<path d="M0 0 C0.99 0.33 1.98 0.66 3 1 C2.34 1.66 1.68 2.32 1 3 C0.01 3 -0.98 3 -2 3 C-2.33 3.99 -2.66 4.98 -3 6 C-3.99 6 -4.98 6 -6 6 C-5.67 5.01 -5.34 4.02 -5 3 C-3.35 2.67 -1.7 2.34 0 2 C0 1.34 0 0.68 0 0 Z " fill="#3D3E3C" transform="translate(584,667)"/>
<path d="M0 0 C0.66 0.33 1.32 0.66 2 1 C0.02 3.97 0.02 3.97 -2 7 C-3.32 6.01 -4.64 5.02 -6 4 C-4.02 2.68 -2.04 1.36 0 0 Z " fill="#1C1C1B" transform="translate(609,653)"/>
<path d="M0 0 C3.86107457 2.57404971 3.94319692 4.61020259 5 9 C2.5 6.75 2.5 6.75 0 4 C0 2.68 0 1.36 0 0 Z " fill="#3E3E3F" transform="translate(307,635)"/>
<path d="M0 0 C1.46726798 3.81489674 0.43336419 6.29011622 -1 10 C-1.66 10 -2.32 10 -3 10 C-2.25 3.375 -2.25 3.375 0 0 Z " fill="#545354" transform="translate(725,527)"/>
<path d="M0 0 C-2.97 1.65 -5.94 3.3 -9 5 C-9.33 4.34 -9.66 3.68 -10 3 C-9.01 3 -8.02 3 -7 3 C-7 2.01 -7 1.02 -7 0 C-2.25 -1.125 -2.25 -1.125 0 0 Z " fill="#59595B" transform="translate(597,678)"/>
<path d="M0 0 C1.48199902 0.44909061 2.96055236 0.90956564 4.4375 1.375 C5.26121094 1.63023437 6.08492188 1.88546875 6.93359375 2.1484375 C9 3 9 3 10 5 C3.47692308 4.50769231 3.47692308 4.50769231 1.0625 1.9375 C0.711875 1.298125 0.36125 0.65875 0 0 Z " fill="#A8A6A5" transform="translate(357,664)"/>
<path d="M0 0 C6.75 1.625 6.75 1.625 9 5 C4.545 4.01 4.545 4.01 0 3 C0 2.01 0 1.02 0 0 Z " fill="#5E5C5C" transform="translate(339,654)"/>
<path d="M0 0 C0.99 0 1.98 0 3 0 C3 0.66 3 1.32 3 2 C3.99 2.33 4.98 2.66 6 3 C4.35 4.65 2.7 6.3 1 8 C0.67 7.34 0.34 6.68 0 6 C0.66 6 1.32 6 2 6 C2 4.35 2 2.7 2 1 C1.34 0.67 0.68 0.34 0 0 Z " fill="#1A191B" transform="translate(675,612)"/>
<path d="M0 0 C3 1 3 1 4.25 3.3125 C5.0275526 6.09873015 4.98726527 7.33438378 4 10 C4 9.34 4 8.68 4 8 C3.34 8 2.68 8 2 8 C2 6.02 2 4.04 2 2 C1.34 2 0.68 2 0 2 C0 1.34 0 0.68 0 0 Z " fill="#5B5C5D" transform="translate(738,489)"/>
<path d="M0 0 C0.99 0.33 1.98 0.66 3 1 C2.67 2.65 2.34 4.3 2 6 C1.01 6 0.02 6 -1 6 C-1.625 4.125 -1.625 4.125 -2 2 C-1.34 1.34 -0.68 0.68 0 0 Z " fill="#F3F3F4" transform="translate(615,393)"/>
<path d="M0 0 C0 0.99 0 1.98 0 3 C-4.455 3.495 -4.455 3.495 -9 4 C-6.43425105 1.43425105 -3.68548192 0 0 0 Z " fill="#E0E1E1" transform="translate(558,697)"/>
<path d="M0 0 C0.66 0 1.32 0 2 0 C2 1.98 2 3.96 2 6 C0.68 5.34 -0.64 4.68 -2 4 C-1.34 2.68 -0.68 1.36 0 0 Z " fill="#EBEBEA" transform="translate(718,573)"/>
<path d="M0 0 C2.51083114 1.25541557 2.87125446 2.50063488 4 5 C4.66 5 5.32 5 6 5 C5.34 6.32 4.68 7.64 4 9 C1.47740939 7.02579865 1.0070192 6.03254358 0.3125 2.8125 C0.209375 1.884375 0.10625 0.95625 0 0 Z " fill="#282728" transform="translate(384,414)"/>
<path d="M0 0 C2.31 0 4.62 0 7 0 C6.67 0.99 6.34 1.98 6 3 C5.34 3 4.68 3 4 3 C3.67 3.66 3.34 4.32 3 5 C2.01 3.35 1.02 1.7 0 0 Z " fill="#E8E7E7" transform="translate(615,403)"/>
</svg>
